<svg width="96" height="43" viewBox="0 0 96 43" fill="none" xmlns="http://www.w3.org/2000/svg">
<g clip-path="url(#clip0_296_1742)">
<path d="M14.6918 0.0654298C14.8102 0.0873796 14.8971 0.12649 14.985 0.128732C16.5657 0.169066 18.0771 0.523963 19.5399 1.1015C20.7506 1.5795 21.8829 2.20273 22.9077 2.99526C24.3708 4.1268 25.5847 5.48285 26.512 7.08222C27.2404 8.33868 27.7683 9.67506 28.0863 11.0845C28.3214 12.1268 28.4534 13.1867 28.3621 14.275C26.1744 14.275 23.9933 14.275 21.8904 14.275C21.6963 13.379 21.5819 12.4843 21.3035 11.6426C20.7293 9.90667 19.5698 8.60651 17.9884 7.6727C17.0629 7.12627 16.0591 6.8376 14.9878 6.70663C13.6445 6.54241 12.3776 6.77766 11.1666 7.31744C9.38872 8.10992 8.1053 9.4107 7.31853 11.1736C6.93714 12.0282 6.72295 12.9255 6.72594 13.8704C6.7335 16.2624 6.72845 18.6545 6.72845 21.0466C6.72845 21.1545 6.72845 21.2625 6.72845 21.3704C9.78379 21.3369 13.7897 19.0056 14.0811 13.9072C14.1963 13.9072 14.3125 13.9072 14.3445 13.9072C14.4959 14.673 14.6156 15.4202 14.7957 16.153C15.0084 17.0185 15.4544 17.7823 16.0041 18.4803C16.7984 19.4889 17.7825 20.2684 18.9792 20.7673C19.6832 21.0609 20.409 21.2677 21.1783 21.3419C22.1453 21.4352 23.1345 21.3553 24.0696 21.7246C24.8343 22.0265 25.5401 22.4029 26.1757 22.9318C27.3128 23.8779 27.9561 25.0968 28.2892 26.4965C28.3609 26.7978 28.3708 27.1176 28.3762 27.4294C28.3885 28.1314 28.3924 28.8341 28.3777 29.536C28.3403 31.3141 27.9612 33.0205 27.246 34.6532C26.6286 36.0627 25.7763 37.3168 24.747 38.4678C23.6921 39.6473 22.4523 40.5801 21.0753 41.3527C19.7499 42.0964 18.3206 42.5554 16.8386 42.8593C16.3719 42.955 15.887 42.9637 15.3997 43.0389C14.6327 43.0654 13.8763 43.0654 13.078 43.0389C12.424 42.9333 11.804 42.8921 11.2016 42.7676C9.8578 42.49 8.58475 42.0083 7.3814 41.352C6.41435 40.8245 5.50454 40.2148 4.7114 39.4521C4.22036 38.9799 3.74791 38.487 3.29092 37.9824C2.57016 37.1865 2.00639 36.2821 1.5316 35.3269C0.847898 33.9515 0.369149 32.511 0.194488 30.9801C0.187841 30.9218 0.110699 30.8714 0.0664063 30.8173C0.0664064 30.7881 0.0664064 30.7588 0.0908601 30.7001C0.0990113 30.5659 0.0827088 30.4612 0.0664063 30.3564C0.0664064 29.8941 0.0664064 29.4317 0.0976285 28.9386C2.32262 28.9077 4.51638 28.9077 6.69467 28.9077C6.72994 29.3625 6.75039 29.7837 6.79764 30.2019C6.88904 31.011 7.16507 31.7728 7.54245 32.4839C8.09296 33.5211 8.85492 34.3964 9.81951 35.0921C10.9014 35.8724 12.1149 36.3491 13.4369 36.4611C14.1819 36.5243 14.9559 36.4618 15.6956 36.3351C17.4268 36.0385 18.8322 35.169 19.9724 33.8383C21.209 32.395 21.7592 30.7217 21.7789 28.866C21.803 26.6059 21.7848 24.3455 21.784 22.0852C21.784 21.9908 21.7747 21.8965 21.7687 21.7846C19.7879 21.8475 18.0922 22.5601 16.7169 23.8981C15.2295 25.3453 14.428 27.1323 14.4403 29.2184C14.3013 29.2184 14.1846 29.2184 14.0753 29.2184C14.0231 28.8061 14.02 28.4 13.9136 28.0222C13.7022 27.2725 13.51 26.5023 13.1712 25.8064C12.6732 24.7836 11.9216 23.9335 10.9782 23.2613C9.73449 22.3751 8.36499 21.8495 6.82219 21.7949C6.3724 21.779 5.91468 21.7973 5.47516 21.7194C4.44234 21.5365 3.47292 21.1647 2.63346 20.5314C1.44552 19.6353 0.629598 18.4813 0.262433 17.0336C0.223585 16.8804 0.132993 16.7401 0.0664062 16.5938C0.0664064 15.3632 0.0664064 14.1326 0.0908594 12.8637C0.0990104 12.7206 0.0827084 12.6158 0.0664064 12.5111C0.0664064 12.4818 0.0664064 12.4525 0.0920264 12.3936C0.167153 12.1495 0.230718 11.9372 0.263844 11.7204C0.453835 10.4766 0.837882 9.29071 1.37711 8.15639C1.87223 7.11486 2.49464 6.15364 3.22866 5.25228C3.99721 4.3085 4.87431 3.48669 5.85209 2.77362C6.78455 2.0936 7.80074 1.5459 8.87947 1.1157C10.3509 0.528914 11.8713 0.174055 13.4616 0.128766C13.5494 0.126263 13.6363 0.0873795 13.7236 0.0654297C14.036 0.0654298 14.3484 0.0654298 14.6918 0.0654298Z" fill="#FBFDFF"/>
<path d="M96.0655 30.655C96.0301 30.7094 95.978 30.7249 95.9617 30.7577C95.7419 31.2017 95.3461 31.3355 94.8893 31.3421C94.2568 31.3511 93.6238 31.3528 92.9913 31.342C92.3289 31.3308 91.861 30.9533 91.8633 30.2353C91.8745 26.6915 91.8735 23.1477 91.8644 19.6039C91.8624 18.8225 92.3259 18.5363 92.9602 18.5097C93.6139 18.4823 94.2698 18.4979 94.9246 18.5054C95.4374 18.5113 95.8362 18.7047 96.0422 19.2217C96.0655 23.0267 96.0655 26.8254 96.0655 30.655Z" fill="#FBFDFF"/>
<path d="M96.0655 15.8395C96.0212 15.9135 95.9684 15.9508 95.9339 16.0006C95.7237 16.3032 95.454 16.4737 95.0642 16.4669C94.3215 16.4537 93.5783 16.4637 92.8353 16.4629C92.3039 16.4623 91.8804 16.0685 91.871 15.5443C91.86 14.9306 91.8616 14.3165 91.8705 13.7028C91.8781 13.1857 92.3359 12.7872 92.9398 12.7779C93.6272 12.7673 94.3152 12.763 95.0023 12.7797C95.488 12.7915 95.8389 13.0294 96.0425 13.4938C96.0655 14.2694 96.0655 15.0391 96.0655 15.8395Z" fill="#FBFDFF"/>
<path d="M46.6332 27.6565C48.3318 27.6565 49.9972 27.6667 51.6623 27.6507C52.2095 27.6455 52.7228 27.4617 53.1431 27.109C54.0215 26.3721 53.7887 25.2853 52.9709 24.6966C52.419 24.2994 51.7642 24.1804 51.1076 24.1743C48.8985 24.1537 46.6854 24.245 44.481 24.1431C42.507 24.0519 40.8658 23.2093 39.9474 21.3806C39.6639 20.8161 39.5064 20.15 39.4586 19.518C39.3551 18.1493 39.4275 16.7802 40.2462 15.5856C40.7903 14.7917 41.5528 14.2499 42.4501 13.8958C43.3269 13.5499 44.2412 13.4262 45.183 13.4298C47.6808 13.4391 50.1788 13.4238 52.6766 13.4375C53.6422 13.4429 54.6011 13.5425 55.5129 13.8941C56.5672 14.3007 57.2768 15.0286 57.5549 16.1223C57.6959 16.677 57.7989 17.2429 57.8861 17.8087C57.9542 18.2507 57.4872 18.7596 57.0295 18.7644C56.2081 18.7729 55.3862 18.7806 54.5651 18.7619C54.0172 18.7495 53.7613 18.3273 53.6451 17.9001C53.452 17.1893 53.0349 17.0725 52.4474 17.0651C50.3495 17.0385 48.2508 17.0364 46.153 17.0649C45.4432 17.0745 44.7801 17.2844 44.2639 17.8386C43.8339 18.3004 43.7908 19.0855 44.1795 19.6029C44.6777 20.2662 45.3854 20.5266 46.172 20.5362C48.2366 20.5614 50.3018 20.5356 52.3667 20.5483C53.5232 20.5554 54.6339 20.7632 55.6663 21.3264C56.9425 22.0226 57.7423 23.0591 58.0209 24.4673C58.2578 25.6655 58.2655 26.87 57.8893 28.0454C57.4715 29.3507 56.5823 30.2318 55.3159 30.7773C54.6128 31.0802 53.8921 31.2674 53.1303 31.2755C50.3937 31.3045 47.6568 31.3482 44.9203 31.33C43.962 31.3236 42.9931 31.2543 42.0615 30.9519C40.7957 30.5409 40.0213 29.685 39.7145 28.4253C39.5936 27.9291 39.5932 27.4055 39.4988 26.9016C39.4062 26.4068 39.985 25.9482 40.4284 25.9456C41.1722 25.9413 41.9162 25.936 42.6598 25.9477C43.0974 25.9545 43.5349 26.3424 43.7019 26.8335C43.9242 27.4872 44.1641 27.6565 44.8681 27.6565C45.4454 27.6565 46.0227 27.6565 46.6332 27.6565Z" fill="#FBFDFF"/>
<path d="M71.298 21.4206C70.8486 21.7775 70.4156 22.1168 69.9833 22.4571C69.839 22.5707 69.6967 22.6869 69.5335 22.818C70.0427 23.625 70.5443 24.4219 71.0479 25.2176C72.0823 26.8521 73.1175 28.4859 74.153 30.1196C74.2045 30.2008 74.2584 30.281 74.3176 30.3567C74.6394 30.7684 74.572 31.319 73.8817 31.3382C72.9055 31.3653 71.9267 31.3745 70.9512 31.3364C70.0456 31.301 69.5244 30.6931 69.0842 29.9851C68.3549 28.812 67.6056 27.6511 66.8661 26.4842C66.6616 26.1615 66.4619 25.8358 66.2307 25.4645C66.0353 25.607 65.831 25.7484 65.6351 25.9004C65.294 26.1651 64.955 26.4328 64.6211 26.7063C64.4501 26.8464 64.3394 26.998 64.3459 27.257C64.3696 28.2111 64.3605 29.1662 64.3509 30.1209C64.349 30.3093 64.3121 30.5042 64.2536 30.684C64.093 31.1772 63.6761 31.3229 63.2155 31.3392C62.5613 31.3624 61.9048 31.3661 61.2509 31.3388C60.676 31.3149 60.1458 31.0623 60.1484 30.2455C60.1669 24.5611 60.1638 18.8766 60.15 13.1921C60.1486 12.588 60.5886 12.1514 61.1639 12.176C61.8399 12.2049 62.5205 12.2184 63.1948 12.1737C64.0296 12.1185 64.3502 12.6687 64.3527 13.3473C64.36 15.3116 64.3553 17.276 64.3553 19.2403C64.3553 20.0811 64.3553 20.9219 64.3553 21.8125C65.2239 21.118 66.0495 20.4466 66.8878 19.7911C67.4996 19.3127 68.058 18.7386 68.8808 18.6057C69.1265 18.5661 69.3738 18.5106 69.6207 18.5089C70.9862 18.4995 72.3518 18.504 73.7174 18.5048C73.9512 18.5049 74.2469 18.4557 74.3342 18.7225C74.4294 19.0137 74.134 19.1417 73.9441 19.2944C73.0685 19.9984 72.1913 20.7005 71.298 21.4206Z" fill="#FBFDFF"/>
<path d="M80.6408 31.3282C79.9117 31.2661 79.231 31.1456 78.5671 30.8934C77.4411 30.4657 76.5792 29.7499 75.9889 28.7168C75.5713 27.986 75.3091 27.2043 75.2831 26.3574C75.2576 25.5289 75.1867 24.6977 75.227 23.8721C75.3017 22.3418 75.7925 20.957 76.9763 19.9022C77.749 19.2137 78.6635 18.7437 79.7062 18.6486C80.8 18.5488 81.9027 18.5222 83.0021 18.5102C84.9115 18.4894 86.8215 18.4902 88.7309 18.5121C89.4037 18.5198 89.6756 18.7339 89.8413 19.2348C89.8743 19.3346 89.8711 19.4485 89.8712 19.5559C89.8726 23.1116 89.8646 26.6673 89.8787 30.2229C89.8816 30.9466 89.406 31.3433 88.729 31.3439C86.0422 31.3463 83.3553 31.3436 80.6408 31.3282ZM79.4759 25.8518C79.5668 26.9618 80.5063 27.8829 81.6914 27.9137C82.933 27.9461 84.1761 27.9213 85.4185 27.9201C85.5023 27.92 85.586 27.9077 85.6543 27.9023C85.6543 25.8972 85.6543 23.9182 85.6543 21.9286C84.2699 21.9286 82.9037 21.8767 81.5439 21.946C80.5609 21.9962 79.84 22.6433 79.5532 23.5468C79.3195 24.2828 79.4063 25.0492 79.4759 25.8518Z" fill="#FBFDFF"/>
</g>
<defs>
<clipPath id="clip0_296_1742">
<rect width="96" height="43" fill="white"/>
</clipPath>
</defs>
</svg>
